<svg aria-hidden="true" style="position: absolute; width: 0; height: 0; overflow: hidden;" version="1.1"
    xmlns="http://www.w3.org/2000/svg" xmlns:xlink="http://www.w3.org/1999/xlink">
    <defs>
        <!-- sidebar icons -->
        <symbol viewBox="0 0 20 20" xmlns="http://www.w3.org/2000/svg" id="dashboard">
            <path
                d="M10 10H17.5M10 2.5V17.5M6.5 2.5H13.5C14.9002 2.5 15.6002 2.5 16.135 2.77248C16.6054 3.01217 16.9878 3.39462 17.2275 3.86503C17.5 4.3998 17.5 5.09987 17.5 6.5V13.5C17.5 14.9002 17.5 15.6002 17.2275 16.135C16.9878 16.6054 16.6054 16.9878 16.135 17.2275C15.6002 17.5 14.9002 17.5 13.5 17.5H6.5C5.09987 17.5 4.3998 17.5 3.86503 17.2275C3.39462 16.9878 3.01217 16.6054 2.77248 16.135C2.5 15.6002 2.5 14.9002 2.5 13.5V6.5C2.5 5.09987 2.5 4.3998 2.77248 3.86503C3.01217 3.39462 3.39462 3.01217 3.86503 2.77248C4.3998 2.5 5.09987 2.5 6.5 2.5Z"
                stroke-width="1.5" stroke-linecap="round" stroke-linejoin="round" />
        </symbol>
        <symbol viewBox="0 0 20 20" xmlns="http://www.w3.org/2000/svg" id="compliance">
            <path
                d="M7.5 15.4167H12.5M5.83333 12.5H14.1667M4.16667 1.66669H15.8333C16.7538 1.66669 17.5 2.49579 17.5 3.51854V16.4815C17.5 17.5043 16.7538 18.3334 15.8333 18.3334H4.16667C3.24619 18.3334 2.5 17.5043 2.5 16.4815V3.51854C2.5 2.49579 3.24619 1.66669 4.16667 1.66669ZM9.998 5.17664C9.41483 4.52735 8.44242 4.3527 7.71178 4.94725C6.98115 5.5418 6.87828 6.53585 7.45206 7.23902C8.02583 7.9422 9.998 9.58335 9.998 9.58335C9.998 9.58335 11.9702 7.9422 12.5439 7.23902C13.1177 6.53585 13.0274 5.53554 12.2843 4.94725C11.541 4.35895 10.5812 4.52735 9.998 5.17664Z"
                stroke-width="1.5" stroke-linecap="round" stroke-linejoin="round" />
        </symbol>
        <symbol viewBox="0 0 20 20" xmlns="http://www.w3.org/2000/svg" id="incident">
            <path
                d="M6.66667 12.5V14.1667M10 9.16667V14.1667M13.3333 5.83333V14.1667M6.5 17.5H13.5C14.9002 17.5 15.6002 17.5 16.135 17.2275C16.6054 16.9878 16.9878 16.6054 17.2275 16.135C17.5 15.6002 17.5 14.9002 17.5 13.5V6.5C17.5 5.09987 17.5 4.3998 17.2275 3.86503C16.9878 3.39462 16.6054 3.01217 16.135 2.77248C15.6002 2.5 14.9002 2.5 13.5 2.5H6.5C5.09987 2.5 4.3998 2.5 3.86503 2.77248C3.39462 3.01217 3.01217 3.39462 2.77248 3.86503C2.5 4.3998 2.5 5.09987 2.5 6.5V13.5C2.5 14.9002 2.5 15.6002 2.77248 16.135C3.01217 16.6054 3.39462 16.9878 3.86503 17.2275C4.3998 17.5 5.09987 17.5 6.5 17.5Z"
                stroke-width="1.5" stroke-linecap="round" stroke-linejoin="round" />
        </symbol>
        <symbol viewBox="0 0 20 20" xmlns="http://www.w3.org/2000/svg" id="alerts">
            <g clip-path="url(#clip0_105_444)">
                <path
                    d="M10 6.66666V9.99999M10 13.3333H10.0084M1.66669 7.10227V12.8977C1.66669 13.1015 1.66669 13.2034 1.68971 13.2993C1.71013 13.3844 1.7438 13.4657 1.78949 13.5402C1.84102 13.6243 1.91309 13.6964 2.05721 13.8405L6.1595 17.9428C6.30362 18.0869 6.37569 18.159 6.45979 18.2105C6.53435 18.2562 6.61563 18.2899 6.70066 18.3103C6.79657 18.3333 6.89848 18.3333 7.1023 18.3333H12.8978C13.1015 18.3333 13.2034 18.3333 13.2994 18.3103C13.3844 18.2899 13.4657 18.2562 13.5403 18.2105C13.6244 18.159 13.6964 18.0869 13.8405 17.9428L17.9429 13.8405C18.0869 13.6964 18.159 13.6243 18.2105 13.5402C18.2563 13.4657 18.2899 13.3844 18.3104 13.2993C18.3334 13.2034 18.3334 13.1015 18.3334 12.8977V7.10227C18.3334 6.89845 18.3334 6.79654 18.3104 6.70063C18.2899 6.6156 18.2563 6.53432 18.2105 6.45976C18.159 6.37566 18.0869 6.30359 17.9429 6.15946L13.8405 2.05718C13.6964 1.91306 13.6244 1.84099 13.5403 1.78946C13.4657 1.74376 13.3844 1.7101 13.2994 1.68968C13.2034 1.66666 13.1015 1.66666 12.8978 1.66666H7.1023C6.89848 1.66666 6.79657 1.66666 6.70066 1.68968C6.61563 1.7101 6.53435 1.74376 6.45979 1.78946C6.37569 1.84099 6.30362 1.91306 6.1595 2.05718L2.05721 6.15946C1.91309 6.30359 1.84102 6.37566 1.78949 6.45976C1.7438 6.53432 1.71013 6.6156 1.68971 6.70063C1.66669 6.79654 1.66669 6.89845 1.66669 7.10227Z"
                    stroke-width="1.5" stroke-linecap="round" stroke-linejoin="round" />
            </g>
            <defs>
                <clipPath id="clip0_105_444">
                    <rect fill="white" />
                </clipPath>
            </defs>
        </symbol>
        <symbol viewBox="0 0 20 20" xmlns="http://www.w3.org/2000/svg" id="response">
            <g clip-path="url(#clip0_105_449)">
                <path
                    d="M7.575 7.5C7.77091 6.94306 8.15762 6.47342 8.6666 6.17427C9.1756 5.87513 9.7741 5.76578 10.3559 5.86559C10.9379 5.96541 11.4657 6.26793 11.8459 6.71961C12.2261 7.17127 12.4342 7.74293 12.4334 8.33333C12.4334 10 9.93335 10.8333 9.93335 10.8333M10 14.1667H10.0084M1.66669 7.10229V12.8978C1.66669 13.1015 1.66669 13.2034 1.68971 13.2993C1.71013 13.3844 1.7438 13.4657 1.78949 13.5403C1.84102 13.6243 1.91309 13.6964 2.05721 13.8405L6.1595 17.9428C6.30362 18.0869 6.37569 18.159 6.45979 18.2105C6.53435 18.2563 6.61563 18.2899 6.70066 18.3103C6.79657 18.3333 6.89848 18.3333 7.1023 18.3333H12.8978C13.1015 18.3333 13.2034 18.3333 13.2994 18.3103C13.3844 18.2899 13.4657 18.2563 13.5403 18.2105C13.6244 18.159 13.6964 18.0869 13.8405 17.9428L17.9429 13.8405C18.0869 13.6964 18.159 13.6243 18.2105 13.5403C18.2563 13.4657 18.2899 13.3844 18.3104 13.2993C18.3334 13.2034 18.3334 13.1015 18.3334 12.8978V7.10229C18.3334 6.89846 18.3334 6.79655 18.3104 6.70065C18.2899 6.61561 18.2563 6.53433 18.2105 6.45977C18.159 6.37567 18.0869 6.30361 17.9429 6.15948L13.8405 2.0572C13.6964 1.91307 13.6244 1.84101 13.5403 1.78947C13.4657 1.74378 13.3844 1.71011 13.2994 1.6897C13.2034 1.66667 13.1015 1.66667 12.8978 1.66667H7.1023C6.89848 1.66667 6.79657 1.66667 6.70066 1.6897C6.61563 1.71011 6.53435 1.74378 6.45979 1.78947C6.37569 1.84101 6.30362 1.91307 6.1595 2.0572L2.05721 6.15948C1.91309 6.30361 1.84102 6.37567 1.78949 6.45977C1.7438 6.53433 1.71013 6.61561 1.68971 6.70065C1.66669 6.79655 1.66669 6.89846 1.66669 7.10229Z"
                    stroke-width="1.5" stroke-linecap="round" stroke-linejoin="round" />
            </g>
            <defs>
                <clipPath id="clip0_105_449">
                    <rect fill="white" />
                </clipPath>
            </defs>
        </symbol>
        <symbol viewBox="0 0 20 20" xmlns="http://www.w3.org/2000/svg" id="documents">
            <path
                d="M11.6666 1.89128V5.3334C11.6666 5.80011 11.6666 6.03346 11.7575 6.21172C11.8374 6.36852 11.9648 6.49601 12.1216 6.57591C12.2999 6.66673 12.5332 6.66673 13 6.66673H16.4421M11.6666 14.1667H6.66665M13.3333 10.8333H6.66665M16.6666 8.32352V14.3333C16.6666 15.7335 16.6666 16.4335 16.3941 16.9683C16.1545 17.4388 15.7721 17.8212 15.3016 18.0608C14.7668 18.3333 14.0668 18.3333 12.6666 18.3333H7.33331C5.93318 18.3333 5.23311 18.3333 4.69834 18.0608C4.22793 17.8212 3.84548 17.4388 3.6058 16.9683C3.33331 16.4335 3.33331 15.7335 3.33331 14.3333V5.66667C3.33331 4.26654 3.33331 3.56647 3.6058 3.0317C3.84548 2.56129 4.22793 2.17884 4.69834 1.93916C5.23311 1.66667 5.93318 1.66667 7.33331 1.66667H10.0098C10.6212 1.66667 10.927 1.66667 11.2147 1.73575C11.4698 1.79699 11.7136 1.898 11.9374 2.03507C12.1896 2.18967 12.4058 2.40586 12.8382 2.83825L15.4951 5.4951C15.9275 5.92748 16.1436 6.14367 16.2982 6.39596C16.4353 6.61964 16.5363 6.86351 16.5976 7.11859C16.6666 7.40631 16.6666 7.71205 16.6666 8.32352Z"
                stroke-width="1.5" stroke-linecap="round" stroke-linejoin="round" />
        </symbol>
        <symbol viewBox="0 0 20 20" xmlns="http://www.w3.org/2000/svg" id="detection">
            <g clip-path="url(#clip0_105_460)">
                <path
                    d="M18.3334 10H15M5.00002 10H1.66669M10 5.00001V1.66667M10 18.3333V15M16.6667 10C16.6667 13.6819 13.6819 16.6667 10 16.6667C6.31812 16.6667 3.33335 13.6819 3.33335 10C3.33335 6.31811 6.31812 3.33334 10 3.33334C13.6819 3.33334 16.6667 6.31811 16.6667 10Z"
                    stroke-width="1.5" stroke-linecap="round" stroke-linejoin="round" />
            </g>
            <defs>
                <clipPath id="clip0_105_460">
                    <rect width="20" height="20" fill="white" />
                </clipPath>
            </defs>
        </symbol>
        <symbol viewBox="0 0 20 20" xmlns="http://www.w3.org/2000/svg" id="report">
            <path
                d="M7.5 5.83333H3.83333C3.36662 5.83333 3.13327 5.83333 2.95501 5.92416C2.79821 6.00406 2.67072 6.13154 2.59082 6.28834C2.5 6.4666 2.5 6.69996 2.5 7.16667V16.1667C2.5 16.6334 2.5 16.8668 2.59082 17.045C2.67072 17.2018 2.79821 17.3293 2.95501 17.4092C3.13327 17.5 3.36662 17.5 3.83333 17.5H7.5M7.5 17.5H12.5M7.5 17.5V3.83333C7.5 3.36662 7.5 3.13327 7.59082 2.95501C7.67072 2.79821 7.79821 2.67072 7.95501 2.59082C8.13327 2.5 8.36658 2.5 8.83333 2.5H11.1667C11.6334 2.5 11.8668 2.5 12.045 2.59082C12.2018 2.67072 12.3292 2.79821 12.4092 2.95501C12.5 3.13327 12.5 3.36662 12.5 3.83333V17.5M12.5 17.5H16.1667C16.6334 17.5 16.8668 17.5 17.045 17.4092C17.2018 17.3293 17.3293 17.2018 17.4092 17.045C17.5 16.8668 17.5 16.6334 17.5 16.1667V10.5C17.5 10.0333 17.5 9.79992 17.4092 9.62167C17.3293 9.46483 17.2018 9.33742 17.045 9.2575C16.8668 9.16667 16.6334 9.16667 16.1667 9.16667H12.5"
                stroke-width="1.5" stroke-linecap="round" stroke-linejoin="round" />
        </symbol>
        <symbol viewBox="0 0 20 20" xmlns="http://www.w3.org/2000/svg" id="setting">
            <g clip-path="url(#clip0_105_478)">
                <path
                    d="M10 12.5C11.3808 12.5 12.5 11.3807 12.5 10C12.5 8.61925 11.3808 7.5 10 7.5C8.61927 7.5 7.50002 8.61925 7.50002 10C7.50002 11.3807 8.61927 12.5 10 12.5Z"
                    stroke-width="1.5" stroke-linecap="round" stroke-linejoin="round" />
                <path
                    d="M15.6061 12.2727C15.5053 12.5012 15.4752 12.7547 15.5197 13.0004C15.5643 13.2462 15.6814 13.473 15.8561 13.6515L15.9015 13.697C16.0424 13.8377 16.1542 14.0048 16.2304 14.1888C16.3067 14.3727 16.3459 14.5698 16.3459 14.7689C16.3459 14.9681 16.3067 15.1653 16.2304 15.3492C16.1542 15.5331 16.0424 15.7002 15.9015 15.8409C15.7609 15.9818 15.5937 16.0935 15.4098 16.1697C15.2259 16.246 15.0287 16.2852 14.8296 16.2852C14.6304 16.2852 14.4333 16.246 14.2494 16.1697C14.0654 16.0935 13.8984 15.9818 13.7576 15.8409L13.7121 15.7954C13.5336 15.6208 13.3069 15.5037 13.0611 15.4591C12.8154 15.4145 12.5619 15.4446 12.3334 15.5454C12.1093 15.6415 11.9182 15.8009 11.7836 16.0042C11.649 16.2074 11.5768 16.4456 11.5758 16.6894V16.8182C11.5758 17.22 11.4162 17.6054 11.132 17.8896C10.8479 18.1737 10.4624 18.3333 10.0606 18.3333C9.65877 18.3333 9.27344 18.1737 8.98927 17.8896C8.7051 17.6054 8.54544 17.22 8.54544 16.8182V16.75C8.5396 16.4993 8.45844 16.2561 8.31253 16.0521C8.16661 15.848 7.9627 15.6927 7.7273 15.6061C7.4988 15.5053 7.24533 15.4752 6.99958 15.5197C6.75382 15.5643 6.52705 15.6814 6.3485 15.8561L6.30305 15.9015C6.16234 16.0424 5.99523 16.1542 5.8113 16.2304C5.62735 16.3067 5.4302 16.3459 5.23108 16.3459C5.03197 16.3459 4.8348 16.3067 4.65087 16.2304C4.46693 16.1542 4.29983 16.0424 4.15911 15.9015C4.01824 15.7608 3.90648 15.5937 3.83024 15.4097C3.75399 15.2258 3.71474 15.0287 3.71474 14.8296C3.71474 14.6304 3.75399 14.4332 3.83024 14.2493C3.90648 14.0654 4.01824 13.8983 4.15911 13.7576L4.20456 13.7121C4.37921 13.5336 4.49637 13.3068 4.54094 13.0611C4.5855 12.8153 4.55541 12.5618 4.45456 12.3333C4.35854 12.1093 4.19908 11.9182 3.99583 11.7836C3.79258 11.649 3.5544 11.5767 3.31063 11.5757H3.18184C2.78 11.5757 2.39461 11.4162 2.11046 11.132C1.82632 10.8478 1.66669 10.4624 1.66669 10.0606C1.66669 9.65875 1.82632 9.27342 2.11046 8.98925C2.39461 8.70508 2.78 8.54542 3.18184 8.54542H3.25002C3.50077 8.53958 3.74396 8.45842 3.94797 8.31251C4.15199 8.16659 4.30738 7.96267 4.39396 7.72727C4.4948 7.49877 4.52489 7.24531 4.48033 6.99956C4.43577 6.7538 4.31861 6.52703 4.14396 6.34848L4.0985 6.30303C3.95763 6.16232 3.84588 5.99521 3.76963 5.81127C3.69338 5.62733 3.65413 5.43017 3.65413 5.23106C3.65413 5.03195 3.69338 4.83478 3.76963 4.65085C3.84588 4.46691 3.95763 4.29981 4.0985 4.15909C4.23922 4.01822 4.40633 3.90646 4.59026 3.83022C4.7742 3.75397 4.97136 3.71472 5.17048 3.71472C5.36959 3.71472 5.56675 3.75397 5.75069 3.83022C5.93462 3.90646 6.10173 4.01822 6.24245 4.15909L6.2879 4.20454C6.46645 4.37919 6.69321 4.49635 6.93897 4.54092C7.18472 4.58547 7.43819 4.55539 7.66669 4.45454H7.7273C7.95136 4.35852 8.14246 4.19906 8.27706 3.99581C8.41169 3.79256 8.48394 3.55438 8.48485 3.31061V3.18182C8.48485 2.77997 8.64452 2.39459 8.92869 2.11044C9.21277 1.8263 9.59819 1.66667 10 1.66667C10.4019 1.66667 10.7873 1.8263 11.0714 2.11044C11.3555 2.39459 11.5152 2.77997 11.5152 3.18182V3.25C11.5161 3.49377 11.5884 3.73195 11.723 3.9352C11.8576 4.13845 12.0487 4.29791 12.2728 4.39394C12.5013 4.49478 12.7547 4.52487 13.0004 4.48031C13.2462 4.43575 13.473 4.31859 13.6515 4.14394L13.697 4.09848C13.8377 3.95761 14.0048 3.84586 14.1888 3.76961C14.3727 3.69336 14.5699 3.65411 14.7689 3.65411C14.9681 3.65411 15.1653 3.69336 15.3492 3.76961C15.5331 3.84586 15.7002 3.95761 15.8409 4.09848C15.9818 4.2392 16.0935 4.40631 16.1698 4.59024C16.246 4.77417 16.2853 4.97134 16.2853 5.17046C16.2853 5.36957 16.246 5.56673 16.1698 5.75067C16.0935 5.9346 15.9818 6.10171 15.8409 6.24242L15.7954 6.28787C15.6209 6.46642 15.5037 6.69319 15.4591 6.93895C15.4145 7.1847 15.4446 7.43817 15.5454 7.66667V7.72727C15.6415 7.95134 15.8009 8.14244 16.0042 8.27704C16.2074 8.41167 16.4456 8.48392 16.6894 8.48483H16.8182C17.22 8.48483 17.6054 8.6445 17.8896 8.92867C18.1737 9.21275 18.3334 9.59817 18.3334 10C18.3334 10.4018 18.1737 10.7872 17.8896 11.0713C17.6054 11.3555 17.22 11.5152 16.8182 11.5152H16.75C16.5063 11.5161 16.2681 11.5883 16.0649 11.723C15.8616 11.8576 15.7021 12.0487 15.6061 12.2727Z"
                    stroke-width="1.5" stroke-linecap="round" stroke-linejoin="round" />
            </g>
            <defs>
                <clipPath id="clip0_105_478">
                    <rect width="20" height="20" fill="white" />
                </clipPath>
            </defs>
        </symbol>
        <symbol viewBox="0 0 20 20" xmlns="http://www.w3.org/2000/svg" id="collapse-arrow">
            <path
                d="M12.2583 5.59165C11.9333 5.26665 11.4083 5.26665 11.0833 5.59165L7.25834 9.41665C6.93334 9.74165 6.93334 10.2667 7.25834 10.5917L11.0833 14.4166C11.4083 14.7416 11.9333 14.7416 12.2583 14.4166C12.5833 14.0916 12.5833 13.5667 12.2583 13.2417L9.025 9.99998L12.2583 6.76665C12.5833 6.44165 12.575 5.90832 12.2583 5.59165Z"
                fill="#141519" />
        </symbol>

        <!-- Header icons -->
        <symbol viewBox="0 0 32 32" xmlns="http://www.w3.org/2000/svg" id="notification">
            <path
                d="M23.29 21.29L22 20V15C22 11.93 20.36 9.36 17.5 8.68V8C17.5 7.17 16.83 6.5 16 6.5C15.17 6.5 14.5 7.17 14.5 8V8.68C11.63 9.36 9.99999 11.92 9.99999 15V20L8.70999 21.29C8.07999 21.92 8.51999 23 9.40999 23H22.58C23.48 23 23.92 21.92 23.29 21.29ZM20 21H12V15C12 12.52 13.51 10.5 16 10.5C18.49 10.5 20 12.52 20 15V21ZM16 26C17.1 26 18 25.1 18 24H14C14 25.1 14.89 26 16 26Z" />
        </symbol>
        <symbol viewBox="0 0 16 16" xmlns="http://www.w3.org/2000/svg" id="user">
            <path
                d="M8.00002 8.00002C9.47335 8.00002 10.6667 6.80669 10.6667 5.33335C10.6667 3.86002 9.47335 2.66669 8.00002 2.66669C6.52669 2.66669 5.33335 3.86002 5.33335 5.33335C5.33335 6.80669 6.52669 8.00002 8.00002 8.00002ZM8.00002 9.33335C6.22002 9.33335 2.66669 10.2267 2.66669 12V12.6667C2.66669 13.0334 2.96669 13.3334 3.33335 13.3334H12.6667C13.0334 13.3334 13.3334 13.0334 13.3334 12.6667V12C13.3334 10.2267 9.78002 9.33335 8.00002 9.33335Z" />
        </symbol>
        <symbol viewBox="0 0 32 32" xmlns="http://www.w3.org/2000/svg" id="logout">
            <path
                d="M14.9917 19.575C15.3167 19.9 15.8417 19.9 16.1667 19.575L19.1583 16.5833C19.4833 16.2583 19.4833 15.7333 19.1583 15.4083L16.1667 12.4167C15.8417 12.0917 15.3167 12.0917 14.9917 12.4167C14.6667 12.7417 14.6667 13.2667 14.9917 13.5917L16.5583 15.1667H9.33333C8.875 15.1667 8.5 15.5417 8.5 16C8.5 16.4583 8.875 16.8333 9.33333 16.8333H16.5583L14.9917 18.4C14.6667 18.725 14.675 19.2583 14.9917 19.575ZM21.8333 8.5H10.1667C9.24167 8.5 8.5 9.25 8.5 10.1667V12.6667C8.5 13.125 8.875 13.5 9.33333 13.5C9.79167 13.5 10.1667 13.125 10.1667 12.6667V11C10.1667 10.5417 10.5417 10.1667 11 10.1667H21C21.4583 10.1667 21.8333 10.5417 21.8333 11V21C21.8333 21.4583 21.4583 21.8333 21 21.8333H11C10.5417 21.8333 10.1667 21.4583 10.1667 21V19.3333C10.1667 18.875 9.79167 18.5 9.33333 18.5C8.875 18.5 8.5 18.875 8.5 19.3333V21.8333C8.5 22.75 9.25 23.5 10.1667 23.5H21.8333C22.75 23.5 23.5 22.75 23.5 21.8333V10.1667C23.5 9.25 22.75 8.5 21.8333 8.5Z" />
        </symbol>

        <!-- Coverage Detail's Icons -->
        <symbol viewBox="0 0 24 24" xmlns="http://www.w3.org/2000/svg" id="table-chart">
            <path
                d="M10 10.02H15V21H10V10.02ZM17 21H20C21.1 21 22 20.1 22 19V10H17V21ZM20 3H5C3.9 3 3 3.9 3 5V8H22V5C22 3.9 21.1 3 20 3ZM3 19C3 20.1 3.9 21 5 21H8V10H3V19Z" />
        </symbol>
        <symbol viewBox="0 0 24 24" xmlns="http://www.w3.org/2000/svg" id="video-games">
            <path
                d="M21 6H3C1.9 6 1 6.9 1 8V16C1 17.1 1.9 18 3 18H21C22.1 18 23 17.1 23 16V8C23 6.9 22.1 6 21 6ZM10 13H8V15C8 15.55 7.55 16 7 16C6.45 16 6 15.55 6 15V13H4C3.45 13 3 12.55 3 12C3 11.45 3.45 11 4 11H6V9C6 8.45 6.45 8 7 8C7.55 8 8 8.45 8 9V11H10C10.55 11 11 11.45 11 12C11 12.55 10.55 13 10 13ZM15.5 15C14.67 15 14 14.33 14 13.5C14 12.67 14.67 12 15.5 12C16.33 12 17 12.67 17 13.5C17 14.33 16.33 15 15.5 15ZM19.5 12C18.67 12 18 11.33 18 10.5C18 9.67 18.67 9 19.5 9C20.33 9 21 9.67 21 10.5C21 11.33 20.33 12 19.5 12Z" />
        </symbol>
        <symbol viewBox="0 0 24 24" xmlns="http://www.w3.org/2000/svg" id="monetization">
            <path
                d="M12 2C6.48 2 2 6.48 2 12C2 17.52 6.48 22 12 22C17.52 22 22 17.52 22 12C22 6.48 17.52 2 12 2ZM13.41 18.09V18.67C13.41 19.4 12.81 20 12.08 20H12.07C11.34 20 10.74 19.4 10.74 18.67V18.07C9.41 17.79 8.23 17.06 7.73 15.83C7.5 15.28 7.93 14.67 8.53 14.67H8.77C9.14 14.67 9.44 14.92 9.58 15.27C9.87 16.02 10.63 16.54 12.09 16.54C14.05 16.54 14.49 15.56 14.49 14.95C14.49 14.12 14.05 13.34 11.82 12.81C9.34 12.21 7.64 11.19 7.64 9.14C7.64 7.42 9.03 6.3 10.75 5.93V5.33C10.75 4.6 11.35 4 12.08 4H12.09C12.82 4 13.42 4.6 13.42 5.33V5.95C14.8 6.29 15.67 7.15 16.05 8.21C16.25 8.76 15.83 9.34 15.24 9.34H14.98C14.61 9.34 14.31 9.08 14.21 8.72C13.98 7.96 13.35 7.47 12.09 7.47C10.59 7.47 9.69 8.15 9.69 9.11C9.69 9.95 10.34 10.5 12.36 11.02C14.38 11.54 16.54 12.41 16.54 14.93C16.52 16.76 15.15 17.76 13.41 18.09Z" />
        </symbol>
        <symbol viewBox="0 0 24 24" xmlns="http://www.w3.org/2000/svg" id="policy">
            <path
                d="M21 6.3C21 5.51 20.53 4.79 19.81 4.47L12.81 1.36C12.29 1.13 11.7 1.13 11.19 1.36L4.19 4.47C3.47 4.79 3 5.51 3 6.3V11C3 16.55 6.84 21.74 12 23C14.3 22.44 16.33 21.1 17.88 19.29L14.76 16.17C12.82 17.46 10.18 17.24 8.47 15.53C6.52 13.58 6.52 10.41 8.47 8.46C10.42 6.51 13.59 6.51 15.54 8.46C17.25 10.17 17.46 12.81 16.18 14.75L19.08 17.65C20.29 15.69 21 13.38 21 11V6.3Z" />
            <path
                d="M12 15C13.6569 15 15 13.6569 15 12C15 10.3431 13.6569 9 12 9C10.3431 9 9 10.3431 9 12C9 13.6569 10.3431 15 12 15Z" />
        </symbol>
        <symbol viewBox="0 0 24 24" xmlns="http://www.w3.org/2000/svg" id="web">
            <path
                d="M20 4H4C2.9 4 2.01 4.9 2.01 6L2 18C2 19.1 2.9 20 4 20H20C21.1 20 22 19.1 22 18V6C22 4.9 21.1 4 20 4ZM4 9H14.5V12.5H4V9ZM4 14.5H14.5V18H5C4.45 18 4 17.55 4 17V14.5ZM19 18H16.5V9H20V17C20 17.55 19.55 18 19 18Z" />
        </symbol>

        <!-- price arrow -->
        <symbol viewBox="0 0 16 16" xmlns="http://www.w3.org/2000/svg" id="arrow">
            <path
                d="M3.33335 8.66666H10.78L7.52669 11.92C7.26669 12.18 7.26669 12.6067 7.52669 12.8667C7.78669 13.1267 8.20669 13.1267 8.46669 12.8667L12.86 8.47332C13.12 8.21332 13.12 7.79332 12.86 7.53332L8.47335 3.13332C8.21335 2.87332 7.79335 2.87332 7.53335 3.13332C7.27335 3.39332 7.27335 3.81332 7.53335 4.07332L10.78 7.33332H3.33335C2.96669 7.33332 2.66669 7.63332 2.66669 7.99999C2.66669 8.36666 2.96669 8.66666 3.33335 8.66666Z" />
        </symbol>

        <!-- sidebar menu icon -->
        <symbol aria-hidden="true" viewBox="0 0 20 20" xmlns="http://www.w3.org/2000/svg" id="menu">
            <path clip-rule="evenodd" fill-rule="evenodd"
                d="M2 4.75A.75.75 0 012.75 4h14.5a.75.75 0 010 1.5H2.75A.75.75 0 012 4.75zm0 10.5a.75.75 0 01.75-.75h7.5a.75.75 0 010 1.5h-7.5a.75.75 0 01-.75-.75zM2 10a.75.75 0 01.75-.75h14.5a.75.75 0 010 1.5H2.75A.75.75 0 012 10z">
            </path>
        </symbol>

    </defs>
</svg>